<mxfile host="app.diagrams.net" agent="Mozilla/5.0 (Windows NT 10.0; Win64; x64) AppleWebKit/537.36 (KHTML, like Gecko) Chrome/136.0.0.0 Safari/537.36" version="27.0.6">
  <diagram name="第 1 页" id="SbNVGwkiXgSMr3uINfx7">
    <mxGraphModel dx="1823" dy="2251" grid="0" gridSize="10" guides="1" tooltips="1" connect="1" arrows="1" fold="1" page="0" pageScale="1" pageWidth="827" pageHeight="1169" math="0" shadow="0">
      <root>
        <mxCell id="0" />
        <mxCell id="1" parent="0" />
        <mxCell id="teBT-Pkwd5ApxgJoogsq-1" value="User Plugins" style="rounded=0;whiteSpace=wrap;html=1;labelBackgroundColor=none;" vertex="1" parent="1">
          <mxGeometry x="-1009" y="-942" width="110" height="50" as="geometry" />
        </mxCell>
        <mxCell id="teBT-Pkwd5ApxgJoogsq-2" value="&lt;font style=&quot;font-size: 14px;&quot;&gt;Library&lt;/font&gt;" style="rounded=0;whiteSpace=wrap;html=1;labelBackgroundColor=none;fillColor=#F2CC8F;strokeColor=#E07A5F;fontColor=#393C56;" vertex="1" parent="1">
          <mxGeometry x="-850" y="-942" width="115" height="50" as="geometry" />
        </mxCell>
        <mxCell id="teBT-Pkwd5ApxgJoogsq-7" style="edgeStyle=none;curved=1;rounded=0;orthogonalLoop=1;jettySize=auto;html=1;strokeColor=#E07A5F;fontSize=12;fontColor=#393C56;startSize=8;endSize=8;fillColor=#F2CC8F;entryX=1;entryY=0.5;entryDx=0;entryDy=0;" edge="1" parent="1" source="teBT-Pkwd5ApxgJoogsq-3" target="teBT-Pkwd5ApxgJoogsq-4">
          <mxGeometry relative="1" as="geometry">
            <mxPoint x="-632" y="-814.0336267807904" as="targetPoint" />
            <Array as="points">
              <mxPoint x="-615" y="-837" />
            </Array>
          </mxGeometry>
        </mxCell>
        <mxCell id="teBT-Pkwd5ApxgJoogsq-3" value="Protocol Tool" style="rounded=0;whiteSpace=wrap;html=1;labelBackgroundColor=none;" vertex="1" parent="1">
          <mxGeometry x="-692" y="-942" width="105" height="51" as="geometry" />
        </mxCell>
        <mxCell id="teBT-Pkwd5ApxgJoogsq-4" value="REX" style="rounded=0;whiteSpace=wrap;html=1;labelBackgroundColor=none;fillColor=#F2CC8F;strokeColor=#E07A5F;fontColor=#393C56;" vertex="1" parent="1">
          <mxGeometry x="-854" y="-850" width="121.5" height="26" as="geometry" />
        </mxCell>
        <mxCell id="teBT-Pkwd5ApxgJoogsq-5" value="Framework: base" style="rounded=0;whiteSpace=wrap;html=1;labelBackgroundColor=none;fillColor=#F2CC8F;strokeColor=#E07A5F;fontColor=#393C56;" vertex="1" parent="1">
          <mxGeometry x="-854" y="-780" width="121.5" height="26" as="geometry" />
        </mxCell>
        <mxCell id="teBT-Pkwd5ApxgJoogsq-6" value="Framework: core" style="rounded=0;whiteSpace=wrap;html=1;labelBackgroundColor=none;fillColor=#F2CC8F;strokeColor=#E07A5F;fontColor=#393C56;" vertex="1" parent="1">
          <mxGeometry x="-854" y="-815" width="121.5" height="26" as="geometry" />
        </mxCell>
        <mxCell id="teBT-Pkwd5ApxgJoogsq-9" style="edgeStyle=none;curved=1;rounded=0;orthogonalLoop=1;jettySize=auto;html=1;strokeColor=#E07A5F;fontSize=12;fontColor=#393C56;startSize=8;endSize=8;fillColor=#F2CC8F;" edge="1" parent="1">
          <mxGeometry relative="1" as="geometry">
            <mxPoint x="-856" y="-765" as="targetPoint" />
            <mxPoint x="-950" y="-882" as="sourcePoint" />
            <Array as="points">
              <mxPoint x="-940" y="-837" />
            </Array>
          </mxGeometry>
        </mxCell>
        <mxCell id="teBT-Pkwd5ApxgJoogsq-13" style="edgeStyle=none;curved=1;rounded=0;orthogonalLoop=1;jettySize=auto;html=1;exitX=0.5;exitY=0;exitDx=0;exitDy=0;strokeColor=#E07A5F;fontSize=12;fontColor=#393C56;startSize=8;endSize=8;fillColor=#F2CC8F;" edge="1" parent="1" source="teBT-Pkwd5ApxgJoogsq-10">
          <mxGeometry relative="1" as="geometry">
            <mxPoint x="-795.3529411764706" y="-750.0336339613971" as="targetPoint" />
          </mxGeometry>
        </mxCell>
        <mxCell id="teBT-Pkwd5ApxgJoogsq-10" value="&lt;font style=&quot;font-size: 14px;&quot;&gt;Security&amp;nbsp; Tool&lt;/font&gt;" style="rounded=0;whiteSpace=wrap;html=1;labelBackgroundColor=none;fillColor=#f8cecc;strokeColor=#b85450;" vertex="1" parent="1">
          <mxGeometry x="-854" y="-688" width="115" height="50" as="geometry" />
        </mxCell>
        <mxCell id="teBT-Pkwd5ApxgJoogsq-31" style="edgeStyle=none;curved=1;rounded=0;orthogonalLoop=1;jettySize=auto;html=1;exitX=0.5;exitY=0;exitDx=0;exitDy=0;entryX=0.5;entryY=1;entryDx=0;entryDy=0;strokeColor=#E07A5F;fontSize=12;fontColor=#393C56;startSize=8;endSize=8;fillColor=#F2CC8F;" edge="1" parent="1" source="teBT-Pkwd5ApxgJoogsq-11" target="teBT-Pkwd5ApxgJoogsq-10">
          <mxGeometry relative="1" as="geometry" />
        </mxCell>
        <mxCell id="teBT-Pkwd5ApxgJoogsq-11" value="&lt;font style=&quot;font-size: 14px;&quot;&gt;Web Services&lt;/font&gt;" style="rounded=0;whiteSpace=wrap;html=1;labelBackgroundColor=none;fillColor=#f8cecc;strokeColor=#b85450;" vertex="1" parent="1">
          <mxGeometry x="-854" y="-612" width="115" height="50" as="geometry" />
        </mxCell>
        <mxCell id="teBT-Pkwd5ApxgJoogsq-29" style="edgeStyle=none;curved=1;rounded=0;orthogonalLoop=1;jettySize=auto;html=1;exitX=0.5;exitY=0;exitDx=0;exitDy=0;entryX=0.5;entryY=1;entryDx=0;entryDy=0;strokeColor=#E07A5F;fontSize=12;fontColor=#393C56;startSize=8;endSize=8;fillColor=#F2CC8F;" edge="1" parent="1" source="teBT-Pkwd5ApxgJoogsq-12" target="teBT-Pkwd5ApxgJoogsq-11">
          <mxGeometry relative="1" as="geometry" />
        </mxCell>
        <mxCell id="teBT-Pkwd5ApxgJoogsq-12" value="&lt;font style=&quot;font-size: 14px;&quot;&gt;Intergre Sevices&lt;/font&gt;" style="rounded=0;whiteSpace=wrap;html=1;labelBackgroundColor=none;fillColor=#f8cecc;strokeColor=#b85450;" vertex="1" parent="1">
          <mxGeometry x="-854" y="-538" width="115" height="50" as="geometry" />
        </mxCell>
        <mxCell id="teBT-Pkwd5ApxgJoogsq-34" style="edgeStyle=none;curved=1;rounded=0;orthogonalLoop=1;jettySize=auto;html=1;exitX=1;exitY=0.5;exitDx=0;exitDy=0;strokeColor=#E07A5F;fontSize=12;fontColor=#393C56;startSize=8;endSize=8;fillColor=#F2CC8F;" edge="1" parent="1" source="teBT-Pkwd5ApxgJoogsq-14">
          <mxGeometry relative="1" as="geometry">
            <mxPoint x="-827.2449079241071" y="-747.0815865652901" as="targetPoint" />
            <Array as="points">
              <mxPoint x="-852" y="-706" />
            </Array>
          </mxGeometry>
        </mxCell>
        <mxCell id="teBT-Pkwd5ApxgJoogsq-14" value="&lt;font style=&quot;font-size: 14px;&quot;&gt;Interface&lt;/font&gt;" style="rounded=0;whiteSpace=wrap;html=1;labelBackgroundColor=none;" vertex="1" parent="1">
          <mxGeometry x="-1014" y="-715" width="115" height="50" as="geometry" />
        </mxCell>
        <mxCell id="teBT-Pkwd5ApxgJoogsq-15" value="&lt;font style=&quot;font-size: 14px;&quot;&gt;Library&lt;/font&gt;" style="rounded=0;whiteSpace=wrap;html=1;labelBackgroundColor=none;fillColor=#F2CC8F;strokeColor=#E07A5F;fontColor=#393C56;" vertex="1" parent="1">
          <mxGeometry x="-924" y="-354" width="115" height="50" as="geometry" />
        </mxCell>
        <mxCell id="teBT-Pkwd5ApxgJoogsq-35" style="edgeStyle=none;curved=1;rounded=0;orthogonalLoop=1;jettySize=auto;html=1;strokeColor=#E07A5F;fontSize=12;fontColor=#393C56;startSize=8;endSize=8;fillColor=#F2CC8F;exitX=0;exitY=0.5;exitDx=0;exitDy=0;" edge="1" parent="1" source="teBT-Pkwd5ApxgJoogsq-16">
          <mxGeometry relative="1" as="geometry">
            <mxPoint x="-768" y="-746" as="targetPoint" />
            <Array as="points">
              <mxPoint x="-742" y="-697" />
            </Array>
          </mxGeometry>
        </mxCell>
        <mxCell id="teBT-Pkwd5ApxgJoogsq-16" value="&lt;font style=&quot;font-size: 14px;&quot;&gt;Module&lt;/font&gt;" style="rounded=0;whiteSpace=wrap;html=1;labelBackgroundColor=none;" vertex="1" parent="1">
          <mxGeometry x="-697" y="-715" width="115" height="50" as="geometry" />
        </mxCell>
        <mxCell id="teBT-Pkwd5ApxgJoogsq-17" value="exploits" style="rounded=0;whiteSpace=wrap;html=1;labelBackgroundColor=none;" vertex="1" parent="1">
          <mxGeometry x="-700.25" y="-638" width="121.5" height="26" as="geometry" />
        </mxCell>
        <mxCell id="teBT-Pkwd5ApxgJoogsq-18" value="encoders" style="rounded=0;whiteSpace=wrap;html=1;labelBackgroundColor=none;" vertex="1" parent="1">
          <mxGeometry x="-700.25" y="-568" width="121.5" height="26" as="geometry" />
        </mxCell>
        <mxCell id="teBT-Pkwd5ApxgJoogsq-19" value="payloads" style="rounded=0;whiteSpace=wrap;html=1;labelBackgroundColor=none;" vertex="1" parent="1">
          <mxGeometry x="-700.25" y="-603" width="121.5" height="26" as="geometry" />
        </mxCell>
        <mxCell id="teBT-Pkwd5ApxgJoogsq-20" value="nops" style="rounded=0;whiteSpace=wrap;html=1;labelBackgroundColor=none;" vertex="1" parent="1">
          <mxGeometry x="-700.25" y="-533" width="121.5" height="25" as="geometry" />
        </mxCell>
        <mxCell id="teBT-Pkwd5ApxgJoogsq-22" value="auxiliary" style="rounded=0;whiteSpace=wrap;html=1;labelBackgroundColor=none;" vertex="1" parent="1">
          <mxGeometry x="-700.25" y="-498" width="121.5" height="26" as="geometry" />
        </mxCell>
        <mxCell id="teBT-Pkwd5ApxgJoogsq-23" value="msfweb" style="rounded=0;whiteSpace=wrap;html=1;labelBackgroundColor=none;" vertex="1" parent="1">
          <mxGeometry x="-1017.25" y="-638" width="121.5" height="26" as="geometry" />
        </mxCell>
        <mxCell id="teBT-Pkwd5ApxgJoogsq-24" value="msfgui" style="rounded=0;whiteSpace=wrap;html=1;labelBackgroundColor=none;" vertex="1" parent="1">
          <mxGeometry x="-1017.25" y="-568" width="121.5" height="26" as="geometry" />
        </mxCell>
        <mxCell id="teBT-Pkwd5ApxgJoogsq-25" value="msfconsole" style="rounded=0;whiteSpace=wrap;html=1;labelBackgroundColor=none;" vertex="1" parent="1">
          <mxGeometry x="-1017.25" y="-603" width="121.5" height="26" as="geometry" />
        </mxCell>
        <mxCell id="teBT-Pkwd5ApxgJoogsq-26" value="msfapi" style="rounded=0;whiteSpace=wrap;html=1;labelBackgroundColor=none;" vertex="1" parent="1">
          <mxGeometry x="-1017.25" y="-533" width="121.5" height="26" as="geometry" />
        </mxCell>
      </root>
    </mxGraphModel>
  </diagram>
</mxfile>
